<svg xmlns="http://www.w3.org/2000/svg" xmlns:xlink="http://www.w3.org/1999/xlink" width="1366" zoomAndPan="magnify" viewBox="0 0 1024.5 576" height="768" preserveAspectRatio="xMidYMid meet" version="1.0"><defs><g/><clipPath id="61f5059707"><path d="M 0 0.140625 L 1024 0.140625 L 1024 575.859375 L 0 575.859375 Z M 0 0.140625 " clip-rule="nonzero"/></clipPath><clipPath id="fd507efb9a"><path d="M 179.277344 140.722656 L 405.722656 140.722656 L 405.722656 438 L 179.277344 438 Z M 179.277344 140.722656 " clip-rule="nonzero"/></clipPath><clipPath id="8ff8b9f8b0"><path d="M 196.519531 140.722656 L 388.480469 140.722656 C 398.003906 140.722656 405.722656 148.441406 405.722656 157.964844 L 405.722656 421.035156 C 405.722656 430.558594 398.003906 438.277344 388.480469 438.277344 L 196.519531 438.277344 C 186.996094 438.277344 179.277344 430.558594 179.277344 421.035156 L 179.277344 157.964844 C 179.277344 148.441406 186.996094 140.722656 196.519531 140.722656 Z M 196.519531 140.722656 " clip-rule="nonzero"/></clipPath><clipPath id="f0bfa1b90c"><path d="M 179.277344 140.722656 L 405.667969 140.722656 L 405.667969 438.328125 L 179.277344 438.328125 Z M 179.277344 140.722656 " clip-rule="nonzero"/></clipPath><clipPath id="6729a06d5c"><path d="M 196.519531 140.722656 L 388.472656 140.722656 C 397.996094 140.722656 405.714844 148.441406 405.714844 157.964844 L 405.714844 421.027344 C 405.714844 430.546875 397.996094 438.265625 388.472656 438.265625 L 196.519531 438.265625 C 186.996094 438.265625 179.277344 430.546875 179.277344 421.027344 L 179.277344 157.964844 C 179.277344 148.441406 186.996094 140.722656 196.519531 140.722656 Z M 196.519531 140.722656 " clip-rule="nonzero"/></clipPath><clipPath id="199d7e79ca"><path d="M 604.496094 139.222656 L 830.9375 139.222656 L 830.9375 469 L 604.496094 469 Z M 604.496094 139.222656 " clip-rule="nonzero"/></clipPath><clipPath id="b192a8f2fb"><path d="M 621.738281 139.222656 L 813.699219 139.222656 C 823.21875 139.222656 830.9375 146.941406 830.9375 156.464844 L 830.9375 451.480469 C 830.9375 461 823.21875 468.722656 813.699219 468.722656 L 621.738281 468.722656 C 612.214844 468.722656 604.496094 461 604.496094 451.480469 L 604.496094 156.464844 C 604.496094 146.941406 612.214844 139.222656 621.738281 139.222656 Z M 621.738281 139.222656 " clip-rule="nonzero"/></clipPath><clipPath id="d291a150e6"><path d="M 604.496094 139.222656 L 830.882812 139.222656 L 830.882812 469 L 604.496094 469 Z M 604.496094 139.222656 " clip-rule="nonzero"/></clipPath><clipPath id="bd037d2d79"><path d="M 621.734375 139.222656 L 813.691406 139.222656 C 823.210938 139.222656 830.929688 146.941406 830.929688 156.464844 L 830.929688 451.46875 C 830.929688 460.992188 823.210938 468.710938 813.691406 468.710938 L 621.734375 468.710938 C 612.214844 468.710938 604.496094 460.992188 604.496094 451.46875 L 604.496094 156.464844 C 604.496094 146.941406 612.214844 139.222656 621.734375 139.222656 Z M 621.734375 139.222656 " clip-rule="nonzero"/></clipPath></defs><g clip-path="url(#61f5059707)"><path fill="#ffffff" d="M 0 0.140625 L 1024 0.140625 L 1024 575.859375 L 0 575.859375 Z M 0 0.140625 " fill-opacity="1" fill-rule="nonzero"/><path fill="#ffffff" d="M 0 0.140625 L 1024 0.140625 L 1024 575.859375 L 0 575.859375 Z M 0 0.140625 " fill-opacity="1" fill-rule="nonzero"/></g><g clip-path="url(#fd507efb9a)"><g clip-path="url(#8ff8b9f8b0)"><path fill="#d9d9d9" d="M 179.277344 140.722656 L 405.722656 140.722656 L 405.722656 437.929688 L 179.277344 437.929688 Z M 179.277344 140.722656 " fill-opacity="1" fill-rule="nonzero"/></g></g><g clip-path="url(#f0bfa1b90c)"><g clip-path="url(#6729a06d5c)"><path stroke-linecap="butt" transform="matrix(0.749634, 0, 0, 0.749634, 179.278616, 140.722219)" fill="none" stroke-linejoin="miter" d="M 22.999107 0.000582989 L 279.061526 0.000582989 C 291.76564 0.000582989 302.06233 10.297273 302.06233 23.001387 L 302.06233 373.922583 C 302.06233 386.621486 291.76564 396.918176 279.061526 396.918176 L 22.999107 396.918176 C 10.294993 396.918176 -0.00169724 386.621486 -0.00169724 373.922583 L -0.00169724 23.001387 C -0.00169724 10.297273 10.294993 0.000582989 22.999107 0.000582989 Z M 22.999107 0.000582989 " stroke="#000000" stroke-width="6" stroke-opacity="1" stroke-miterlimit="4"/></g></g><g clip-path="url(#199d7e79ca)"><g clip-path="url(#b192a8f2fb)"><path fill="#d9d9d9" d="M 604.496094 139.222656 L 830.9375 139.222656 L 830.9375 469.160156 L 604.496094 469.160156 Z M 604.496094 139.222656 " fill-opacity="1" fill-rule="nonzero"/></g></g><g clip-path="url(#d291a150e6)"><g clip-path="url(#bd037d2d79)"><path stroke-linecap="butt" transform="matrix(0.749634, 0, 0, 0.749634, 604.494755, 139.222644)" fill="none" stroke-linejoin="miter" d="M 22.997379 0.0000164193 L 279.065009 0.0000164193 C 291.763912 0.0000164193 302.060602 10.296706 302.060602 23.000821 L 302.060602 416.531345 C 302.060602 429.235459 291.763912 439.532149 279.065009 439.532149 L 22.997379 439.532149 C 10.298475 439.532149 0.00178534 429.235459 0.00178534 416.531345 L 0.00178534 23.000821 C 0.00178534 10.296706 10.298475 0.0000164193 22.997379 0.0000164193 Z M 22.997379 0.0000164193 " stroke="#000000" stroke-width="6" stroke-opacity="1" stroke-miterlimit="4"/></g></g><path fill="#000000" d="M 210.101562 207.019531 L 223.597656 207.019531 L 223.597656 209.265625 L 210.101562 209.265625 M 225.84375 207.019531 L 239.339844 207.019531 L 239.339844 209.265625 L 225.84375 209.265625 M 241.589844 207.019531 L 255.082031 207.019531 L 255.082031 209.265625 L 241.589844 209.265625 M 257.332031 207.019531 L 270.824219 207.019531 L 270.824219 209.265625 L 257.332031 209.265625 M 273.074219 207.019531 L 286.566406 207.019531 L 286.566406 209.265625 L 273.074219 209.265625 M 288.816406 207.019531 L 302.308594 207.019531 L 302.308594 209.265625 L 288.816406 209.265625 M 304.558594 207.019531 L 318.050781 207.019531 L 318.050781 209.265625 L 304.558594 209.265625 M 320.300781 207.019531 L 333.792969 207.019531 L 333.792969 209.265625 L 320.300781 209.265625 M 336.042969 207.019531 L 349.535156 207.019531 L 349.535156 209.265625 L 336.042969 209.265625 M 351.785156 207.019531 L 365.277344 207.019531 L 365.277344 209.265625 L 351.785156 209.265625 M 367.527344 207.019531 L 374.898438 207.019531 L 374.898438 209.265625 L 367.527344 209.265625 " fill-opacity="1" fill-rule="nonzero"/><path fill="#000000" d="M 635.320312 205.519531 L 648.8125 205.519531 L 648.8125 207.765625 L 635.320312 207.765625 M 651.0625 205.519531 L 664.554688 205.519531 L 664.554688 207.765625 L 651.0625 207.765625 M 666.804688 205.519531 L 680.296875 205.519531 L 680.296875 207.765625 L 666.804688 207.765625 M 682.546875 205.519531 L 696.039062 205.519531 L 696.039062 207.765625 L 682.546875 207.765625 M 698.289062 205.519531 L 711.78125 205.519531 L 711.78125 207.765625 L 698.289062 207.765625 M 714.03125 205.519531 L 727.523438 205.519531 L 727.523438 207.765625 L 714.03125 207.765625 M 729.773438 205.519531 L 743.265625 205.519531 L 743.265625 207.765625 L 729.773438 207.765625 M 745.515625 205.519531 L 759.007812 205.519531 L 759.007812 207.765625 L 745.515625 207.765625 M 761.257812 205.519531 L 774.75 205.519531 L 774.75 207.765625 L 761.257812 207.765625 M 777 205.519531 L 790.492188 205.519531 L 790.492188 207.765625 L 777 207.765625 M 792.742188 205.519531 L 800.113281 205.519531 L 800.113281 207.765625 L 792.742188 207.765625 " fill-opacity="1" fill-rule="nonzero"/><g fill="#000000" fill-opacity="1"><g transform="translate(267.238004, 184.070089)"><g><path d="M 14.75 -15.6875 L 14.75 -5.53125 C 14.75 -4.375 14.488281 -3.359375 13.96875 -2.484375 C 13.445312 -1.617188 12.695312 -0.953125 11.71875 -0.484375 C 10.738281 -0.015625 9.582031 0.21875 8.25 0.21875 C 6.226562 0.21875 4.660156 -0.296875 3.546875 -1.328125 C 2.429688 -2.367188 1.875 -3.785156 1.875 -5.578125 L 1.875 -15.6875 L 5.1875 -15.6875 L 5.1875 -6.09375 C 5.1875 -4.875 5.425781 -3.984375 5.90625 -3.421875 C 6.394531 -2.859375 7.203125 -2.578125 8.328125 -2.578125 C 9.421875 -2.578125 10.210938 -2.859375 10.703125 -3.421875 C 11.191406 -3.992188 11.4375 -4.890625 11.4375 -6.109375 L 11.4375 -15.6875 Z M 14.75 -15.6875 "/></g></g></g><g fill="#000000" fill-opacity="1"><g transform="translate(283.855846, 184.070089)"><g><path d="M 10.09375 -3.5625 C 10.09375 -2.332031 9.664062 -1.394531 8.8125 -0.75 C 7.957031 -0.101562 6.675781 0.21875 4.96875 0.21875 C 4.09375 0.21875 3.347656 0.15625 2.734375 0.03125 C 2.117188 -0.0820312 1.546875 -0.253906 1.015625 -0.484375 L 1.015625 -3.1875 C 1.617188 -2.90625 2.300781 -2.664062 3.0625 -2.46875 C 3.820312 -2.269531 4.492188 -2.171875 5.078125 -2.171875 C 6.265625 -2.171875 6.859375 -2.515625 6.859375 -3.203125 C 6.859375 -3.460938 6.78125 -3.671875 6.625 -3.828125 C 6.46875 -3.992188 6.195312 -4.175781 5.8125 -4.375 C 5.425781 -4.582031 4.910156 -4.820312 4.265625 -5.09375 C 3.335938 -5.476562 2.65625 -5.835938 2.21875 -6.171875 C 1.789062 -6.503906 1.476562 -6.878906 1.28125 -7.296875 C 1.082031 -7.722656 0.984375 -8.25 0.984375 -8.875 C 0.984375 -9.945312 1.394531 -10.773438 2.21875 -11.359375 C 3.050781 -11.941406 4.226562 -12.234375 5.75 -12.234375 C 7.1875 -12.234375 8.59375 -11.914062 9.96875 -11.28125 L 8.96875 -8.921875 C 8.375 -9.179688 7.8125 -9.390625 7.28125 -9.546875 C 6.757812 -9.710938 6.226562 -9.796875 5.6875 -9.796875 C 4.71875 -9.796875 4.234375 -9.535156 4.234375 -9.015625 C 4.234375 -8.722656 4.390625 -8.46875 4.703125 -8.25 C 5.015625 -8.039062 5.695312 -7.722656 6.75 -7.296875 C 7.6875 -6.921875 8.375 -6.566406 8.8125 -6.234375 C 9.25 -5.910156 9.570312 -5.53125 9.78125 -5.09375 C 9.988281 -4.664062 10.09375 -4.15625 10.09375 -3.5625 Z M 10.09375 -3.5625 "/></g></g></g><g fill="#000000" fill-opacity="1"><g transform="translate(294.784118, 184.070089)"><g><path d="M 6.6875 -9.890625 C 5.988281 -9.890625 5.441406 -9.671875 5.046875 -9.234375 C 4.660156 -8.796875 4.4375 -8.171875 4.375 -7.359375 L 8.96875 -7.359375 C 8.957031 -8.171875 8.75 -8.796875 8.34375 -9.234375 C 7.9375 -9.671875 7.382812 -9.890625 6.6875 -9.890625 Z M 7.15625 0.21875 C 5.21875 0.21875 3.703125 -0.3125 2.609375 -1.375 C 1.523438 -2.445312 0.984375 -3.960938 0.984375 -5.921875 C 0.984375 -7.929688 1.484375 -9.484375 2.484375 -10.578125 C 3.492188 -11.679688 4.890625 -12.234375 6.671875 -12.234375 C 8.359375 -12.234375 9.675781 -11.75 10.625 -10.78125 C 11.570312 -9.8125 12.046875 -8.476562 12.046875 -6.78125 L 12.046875 -5.1875 L 4.296875 -5.1875 C 4.335938 -4.257812 4.613281 -3.53125 5.125 -3 C 5.644531 -2.476562 6.367188 -2.21875 7.296875 -2.21875 C 8.023438 -2.21875 8.707031 -2.289062 9.34375 -2.4375 C 9.988281 -2.59375 10.664062 -2.835938 11.375 -3.171875 L 11.375 -0.640625 C 10.800781 -0.347656 10.1875 -0.132812 9.53125 0 C 8.882812 0.144531 8.09375 0.21875 7.15625 0.21875 Z M 7.15625 0.21875 "/></g></g></g><g fill="#000000" fill-opacity="1"><g transform="translate(307.773517, 184.070089)"><g><path d="M 8.421875 -12.234375 C 8.859375 -12.234375 9.222656 -12.195312 9.515625 -12.125 L 9.28125 -9.0625 C 9.007812 -9.132812 8.6875 -9.171875 8.3125 -9.171875 C 7.257812 -9.171875 6.441406 -8.898438 5.859375 -8.359375 C 5.273438 -7.828125 4.984375 -7.078125 4.984375 -6.109375 L 4.984375 0 L 1.71875 0 L 1.71875 -12 L 4.203125 -12 L 4.6875 -9.984375 L 4.84375 -9.984375 C 5.21875 -10.660156 5.71875 -11.203125 6.34375 -11.609375 C 6.976562 -12.023438 7.671875 -12.234375 8.421875 -12.234375 Z M 8.421875 -12.234375 "/></g></g></g><g fill="#000000" fill-opacity="1"><g transform="translate(681.509526, 184.070089)"><g><path d="M 11.578125 0 L 10.4375 -3.734375 L 4.71875 -3.734375 L 3.578125 0 L 0 0 L 5.53125 -15.765625 L 9.609375 -15.765625 L 15.171875 0 Z M 9.65625 -6.53125 C 8.601562 -9.914062 8.007812 -11.828125 7.875 -12.265625 C 7.738281 -12.710938 7.644531 -13.066406 7.59375 -13.328125 C 7.351562 -12.410156 6.675781 -10.144531 5.5625 -6.53125 Z M 9.65625 -6.53125 "/></g></g></g><g fill="#000000" fill-opacity="1"><g transform="translate(696.678143, 184.070089)"><g><path d="M 8.421875 -12.234375 C 8.859375 -12.234375 9.222656 -12.195312 9.515625 -12.125 L 9.28125 -9.0625 C 9.007812 -9.132812 8.6875 -9.171875 8.3125 -9.171875 C 7.257812 -9.171875 6.441406 -8.898438 5.859375 -8.359375 C 5.273438 -7.828125 4.984375 -7.078125 4.984375 -6.109375 L 4.984375 0 L 1.71875 0 L 1.71875 -12 L 4.203125 -12 L 4.6875 -9.984375 L 4.84375 -9.984375 C 5.21875 -10.660156 5.71875 -11.203125 6.34375 -11.609375 C 6.976562 -12.023438 7.671875 -12.234375 8.421875 -12.234375 Z M 8.421875 -12.234375 "/></g></g></g><g fill="#000000" fill-opacity="1"><g transform="translate(706.661731, 184.070089)"><g><path d="M 6.78125 -2.390625 C 7.34375 -2.390625 8.023438 -2.515625 8.828125 -2.765625 L 8.828125 -0.328125 C 8.015625 0.0351562 7.015625 0.21875 5.828125 0.21875 C 4.515625 0.21875 3.5625 -0.109375 2.96875 -0.765625 C 2.375 -1.429688 2.078125 -2.425781 2.078125 -3.75 L 2.078125 -9.546875 L 0.5 -9.546875 L 0.5 -10.921875 L 2.3125 -12.015625 L 3.25 -14.5625 L 5.34375 -14.5625 L 5.34375 -12 L 8.703125 -12 L 8.703125 -9.546875 L 5.34375 -9.546875 L 5.34375 -3.75 C 5.34375 -3.289062 5.472656 -2.945312 5.734375 -2.71875 C 5.992188 -2.5 6.34375 -2.390625 6.78125 -2.390625 Z M 6.78125 -2.390625 "/></g></g></g><g fill="#000000" fill-opacity="1"><g transform="translate(716.205188, 184.070089)"><g><path d="M 1.578125 -15.109375 C 1.578125 -16.171875 2.171875 -16.703125 3.359375 -16.703125 C 4.546875 -16.703125 5.140625 -16.171875 5.140625 -15.109375 C 5.140625 -14.597656 4.988281 -14.203125 4.6875 -13.921875 C 4.394531 -13.640625 3.953125 -13.5 3.359375 -13.5 C 2.171875 -13.5 1.578125 -14.035156 1.578125 -15.109375 Z M 4.984375 0 L 1.71875 0 L 1.71875 -12 L 4.984375 -12 Z M 4.984375 0 "/></g></g></g><g fill="#000000" fill-opacity="1"><g transform="translate(722.914594, 184.070089)"><g><path d="M 6.59375 0.21875 C 2.851562 0.21875 0.984375 -1.832031 0.984375 -5.9375 C 0.984375 -7.976562 1.488281 -9.535156 2.5 -10.609375 C 3.519531 -11.691406 4.976562 -12.234375 6.875 -12.234375 C 8.269531 -12.234375 9.515625 -11.957031 10.609375 -11.40625 L 9.65625 -8.875 C 9.132812 -9.082031 8.648438 -9.253906 8.203125 -9.390625 C 7.765625 -9.523438 7.320312 -9.59375 6.875 -9.59375 C 5.175781 -9.59375 4.328125 -8.378906 4.328125 -5.953125 C 4.328125 -3.609375 5.175781 -2.4375 6.875 -2.4375 C 7.507812 -2.4375 8.09375 -2.519531 8.625 -2.6875 C 9.164062 -2.851562 9.703125 -3.117188 10.234375 -3.484375 L 10.234375 -0.671875 C 9.710938 -0.335938 9.179688 -0.109375 8.640625 0.015625 C 8.097656 0.148438 7.414062 0.21875 6.59375 0.21875 Z M 6.59375 0.21875 "/></g></g></g><g fill="#000000" fill-opacity="1"><g transform="translate(734.218597, 184.070089)"><g><path d="M 4.984375 0 L 1.71875 0 L 1.71875 -16.703125 L 4.984375 -16.703125 Z M 4.984375 0 "/></g></g></g><g fill="#000000" fill-opacity="1"><g transform="translate(740.928003, 184.070089)"><g><path d="M 6.6875 -9.890625 C 5.988281 -9.890625 5.441406 -9.671875 5.046875 -9.234375 C 4.660156 -8.796875 4.4375 -8.171875 4.375 -7.359375 L 8.96875 -7.359375 C 8.957031 -8.171875 8.75 -8.796875 8.34375 -9.234375 C 7.9375 -9.671875 7.382812 -9.890625 6.6875 -9.890625 Z M 7.15625 0.21875 C 5.21875 0.21875 3.703125 -0.3125 2.609375 -1.375 C 1.523438 -2.445312 0.984375 -3.960938 0.984375 -5.921875 C 0.984375 -7.929688 1.484375 -9.484375 2.484375 -10.578125 C 3.492188 -11.679688 4.890625 -12.234375 6.671875 -12.234375 C 8.359375 -12.234375 9.675781 -11.75 10.625 -10.78125 C 11.570312 -9.8125 12.046875 -8.476562 12.046875 -6.78125 L 12.046875 -5.1875 L 4.296875 -5.1875 C 4.335938 -4.257812 4.613281 -3.53125 5.125 -3 C 5.644531 -2.476562 6.367188 -2.21875 7.296875 -2.21875 C 8.023438 -2.21875 8.707031 -2.289062 9.34375 -2.4375 C 9.988281 -2.59375 10.664062 -2.835938 11.375 -3.171875 L 11.375 -0.640625 C 10.800781 -0.347656 10.1875 -0.132812 9.53125 0 C 8.882812 0.144531 8.09375 0.21875 7.15625 0.21875 Z M 7.15625 0.21875 "/></g></g></g><path fill="#000000" d="M 210.101562 253.726562 L 232.066406 253.726562 L 232.066406 255.972656 L 210.101562 255.972656 Z M 210.101562 253.726562 " fill-opacity="1" fill-rule="nonzero"/><g fill="#000000" fill-opacity="1"><g transform="translate(210.103336, 252.226326)"><g><path d="M 4.234375 0 L 2.1875 0 L 2.1875 -13.578125 L 4.234375 -13.578125 Z M 2 -17.265625 C 2 -17.734375 2.113281 -18.078125 2.34375 -18.296875 C 2.582031 -18.515625 2.875 -18.625 3.21875 -18.625 C 3.550781 -18.625 3.835938 -18.507812 4.078125 -18.28125 C 4.316406 -18.0625 4.4375 -17.722656 4.4375 -17.265625 C 4.4375 -16.796875 4.316406 -16.445312 4.078125 -16.21875 C 3.835938 -16 3.550781 -15.890625 3.21875 -15.890625 C 2.875 -15.890625 2.582031 -16 2.34375 -16.21875 C 2.113281 -16.445312 2 -16.796875 2 -17.265625 Z M 2 -17.265625 "/></g></g></g><g fill="#000000" fill-opacity="1"><g transform="translate(216.517308, 252.226326)"><g><path d="M 11.421875 -1.828125 L 11.3125 -1.828125 C 10.363281 -0.441406 8.941406 0.25 7.046875 0.25 C 5.273438 0.25 3.894531 -0.351562 2.90625 -1.5625 C 1.914062 -2.78125 1.421875 -4.507812 1.421875 -6.75 C 1.421875 -8.988281 1.914062 -10.726562 2.90625 -11.96875 C 3.90625 -13.207031 5.285156 -13.828125 7.046875 -13.828125 C 8.890625 -13.828125 10.300781 -13.15625 11.28125 -11.8125 L 11.453125 -11.8125 L 11.359375 -12.796875 L 11.3125 -13.75 L 11.3125 -19.28125 L 13.375 -19.28125 L 13.375 0 L 11.703125 0 Z M 7.3125 -1.46875 C 8.71875 -1.46875 9.734375 -1.847656 10.359375 -2.609375 C 10.992188 -3.378906 11.3125 -4.613281 11.3125 -6.3125 L 11.3125 -6.75 C 11.3125 -8.675781 10.988281 -10.050781 10.34375 -10.875 C 9.707031 -11.695312 8.6875 -12.109375 7.28125 -12.109375 C 6.070312 -12.109375 5.148438 -11.640625 4.515625 -10.703125 C 3.878906 -9.765625 3.5625 -8.441406 3.5625 -6.734375 C 3.5625 -4.992188 3.878906 -3.679688 4.515625 -2.796875 C 5.148438 -1.910156 6.082031 -1.46875 7.3125 -1.46875 Z M 7.3125 -1.46875 "/></g></g></g><g fill="#000000" fill-opacity="1"><g transform="translate(210.103336, 301.702178)"><g><path d="M 7.921875 0.25 C 5.910156 0.25 4.320312 -0.359375 3.15625 -1.578125 C 2 -2.804688 1.421875 -4.503906 1.421875 -6.671875 C 1.421875 -8.867188 1.957031 -10.609375 3.03125 -11.890625 C 4.113281 -13.179688 5.566406 -13.828125 7.390625 -13.828125 C 9.085938 -13.828125 10.429688 -13.265625 11.421875 -12.140625 C 12.410156 -11.023438 12.90625 -9.550781 12.90625 -7.71875 L 12.90625 -6.421875 L 3.5625 -6.421875 C 3.601562 -4.828125 4.003906 -3.613281 4.765625 -2.78125 C 5.523438 -1.957031 6.597656 -1.546875 7.984375 -1.546875 C 9.453125 -1.546875 10.898438 -1.851562 12.328125 -2.46875 L 12.328125 -0.625 C 11.597656 -0.3125 10.910156 -0.0859375 10.265625 0.046875 C 9.617188 0.179688 8.835938 0.25 7.921875 0.25 Z M 7.359375 -12.109375 C 6.265625 -12.109375 5.394531 -11.75 4.75 -11.03125 C 4.101562 -10.320312 3.722656 -9.34375 3.609375 -8.09375 L 10.703125 -8.09375 C 10.703125 -9.382812 10.410156 -10.375 9.828125 -11.0625 C 9.253906 -11.757812 8.429688 -12.109375 7.359375 -12.109375 Z M 7.359375 -12.109375 "/></g></g></g><g fill="#000000" fill-opacity="1"><g transform="translate(224.330473, 301.702178)"><g><path d="M 19.484375 0 L 19.484375 -8.828125 C 19.484375 -9.910156 19.253906 -10.722656 18.796875 -11.265625 C 18.335938 -11.804688 17.617188 -12.078125 16.640625 -12.078125 C 15.359375 -12.078125 14.410156 -11.707031 13.796875 -10.96875 C 13.191406 -10.238281 12.890625 -9.109375 12.890625 -7.578125 L 12.890625 0 L 10.828125 0 L 10.828125 -8.828125 C 10.828125 -9.910156 10.59375 -10.722656 10.125 -11.265625 C 9.664062 -11.804688 8.945312 -12.078125 7.96875 -12.078125 C 6.675781 -12.078125 5.726562 -11.691406 5.125 -10.921875 C 4.53125 -10.148438 4.234375 -8.882812 4.234375 -7.125 L 4.234375 0 L 2.1875 0 L 2.1875 -13.578125 L 3.859375 -13.578125 L 4.1875 -11.71875 L 4.28125 -11.71875 C 4.675781 -12.382812 5.222656 -12.898438 5.921875 -13.265625 C 6.628906 -13.640625 7.421875 -13.828125 8.296875 -13.828125 C 10.421875 -13.828125 11.8125 -13.054688 12.46875 -11.515625 L 12.5625 -11.515625 C 12.96875 -12.234375 13.550781 -12.796875 14.3125 -13.203125 C 15.082031 -13.617188 15.960938 -13.828125 16.953125 -13.828125 C 18.484375 -13.828125 19.628906 -13.429688 20.390625 -12.640625 C 21.160156 -11.847656 21.546875 -10.585938 21.546875 -8.859375 L 21.546875 0 Z M 19.484375 0 "/></g></g></g><g fill="#000000" fill-opacity="1"><g transform="translate(247.918543, 301.702178)"><g><path d="M 10.53125 0 L 10.125 -1.9375 L 10.03125 -1.9375 C 9.34375 -1.082031 8.660156 -0.503906 7.984375 -0.203125 C 7.316406 0.0976562 6.476562 0.25 5.46875 0.25 C 4.125 0.25 3.070312 -0.09375 2.3125 -0.78125 C 1.550781 -1.476562 1.171875 -2.46875 1.171875 -3.75 C 1.171875 -6.5 3.363281 -7.9375 7.75 -8.0625 L 10.046875 -8.140625 L 10.046875 -8.984375 C 10.046875 -10.046875 9.816406 -10.832031 9.359375 -11.34375 C 8.898438 -11.851562 8.164062 -12.109375 7.15625 -12.109375 C 6.03125 -12.109375 4.753906 -11.757812 3.328125 -11.0625 L 2.6875 -12.640625 C 3.351562 -13.003906 4.082031 -13.285156 4.875 -13.484375 C 5.675781 -13.691406 6.476562 -13.796875 7.28125 -13.796875 C 8.90625 -13.796875 10.109375 -13.4375 10.890625 -12.71875 C 11.671875 -12 12.0625 -10.847656 12.0625 -9.265625 L 12.0625 0 Z M 5.890625 -1.453125 C 7.171875 -1.453125 8.175781 -1.800781 8.90625 -2.5 C 9.632812 -3.207031 10 -4.191406 10 -5.453125 L 10 -6.671875 L 7.9375 -6.59375 C 6.300781 -6.53125 5.125 -6.273438 4.40625 -5.828125 C 3.6875 -5.378906 3.328125 -4.679688 3.328125 -3.734375 C 3.328125 -2.984375 3.550781 -2.414062 4 -2.03125 C 4.445312 -1.644531 5.078125 -1.453125 5.890625 -1.453125 Z M 5.890625 -1.453125 "/></g></g></g><g fill="#000000" fill-opacity="1"><g transform="translate(262.021858, 301.702178)"><g><path d="M 4.234375 0 L 2.1875 0 L 2.1875 -13.578125 L 4.234375 -13.578125 Z M 2 -17.265625 C 2 -17.734375 2.113281 -18.078125 2.34375 -18.296875 C 2.582031 -18.515625 2.875 -18.625 3.21875 -18.625 C 3.550781 -18.625 3.835938 -18.507812 4.078125 -18.28125 C 4.316406 -18.0625 4.4375 -17.722656 4.4375 -17.265625 C 4.4375 -16.796875 4.316406 -16.445312 4.078125 -16.21875 C 3.835938 -16 3.550781 -15.890625 3.21875 -15.890625 C 2.875 -15.890625 2.582031 -16 2.34375 -16.21875 C 2.113281 -16.445312 2 -16.796875 2 -17.265625 Z M 2 -17.265625 "/></g></g></g><g fill="#000000" fill-opacity="1"><g transform="translate(268.43583, 301.702178)"><g><path d="M 4.234375 0 L 2.1875 0 L 2.1875 -19.28125 L 4.234375 -19.28125 Z M 4.234375 0 "/></g></g></g><g fill="#000000" fill-opacity="1"><g transform="translate(210.103336, 351.178029)"><g><path d="M 8.5 0.25 C 7.613281 0.25 6.804688 0.0859375 6.078125 -0.234375 C 5.347656 -0.566406 4.734375 -1.070312 4.234375 -1.75 L 4.09375 -1.75 C 4.1875 -0.957031 4.234375 -0.203125 4.234375 0.515625 L 4.234375 6.09375 L 2.1875 6.09375 L 2.1875 -13.578125 L 3.859375 -13.578125 L 4.140625 -11.71875 L 4.234375 -11.71875 C 4.765625 -12.46875 5.378906 -13.003906 6.078125 -13.328125 C 6.785156 -13.660156 7.59375 -13.828125 8.5 -13.828125 C 10.300781 -13.828125 11.691406 -13.210938 12.671875 -11.984375 C 13.648438 -10.753906 14.140625 -9.023438 14.140625 -6.796875 C 14.140625 -4.566406 13.640625 -2.832031 12.640625 -1.59375 C 11.648438 -0.363281 10.269531 0.25 8.5 0.25 Z M 8.203125 -12.078125 C 6.816406 -12.078125 5.8125 -11.691406 5.1875 -10.921875 C 4.570312 -10.160156 4.253906 -8.941406 4.234375 -7.265625 L 4.234375 -6.796875 C 4.234375 -4.890625 4.550781 -3.523438 5.1875 -2.703125 C 5.820312 -1.878906 6.84375 -1.46875 8.25 -1.46875 C 9.425781 -1.46875 10.34375 -1.941406 11 -2.890625 C 11.664062 -3.847656 12 -5.160156 12 -6.828125 C 12 -8.515625 11.664062 -9.8125 11 -10.71875 C 10.34375 -11.625 9.410156 -12.078125 8.203125 -12.078125 Z M 8.203125 -12.078125 "/></g></g></g><g fill="#000000" fill-opacity="1"><g transform="translate(225.642985, 351.178029)"><g><path d="M 10.53125 0 L 10.125 -1.9375 L 10.03125 -1.9375 C 9.34375 -1.082031 8.660156 -0.503906 7.984375 -0.203125 C 7.316406 0.0976562 6.476562 0.25 5.46875 0.25 C 4.125 0.25 3.070312 -0.09375 2.3125 -0.78125 C 1.550781 -1.476562 1.171875 -2.46875 1.171875 -3.75 C 1.171875 -6.5 3.363281 -7.9375 7.75 -8.0625 L 10.046875 -8.140625 L 10.046875 -8.984375 C 10.046875 -10.046875 9.816406 -10.832031 9.359375 -11.34375 C 8.898438 -11.851562 8.164062 -12.109375 7.15625 -12.109375 C 6.03125 -12.109375 4.753906 -11.757812 3.328125 -11.0625 L 2.6875 -12.640625 C 3.351562 -13.003906 4.082031 -13.285156 4.875 -13.484375 C 5.675781 -13.691406 6.476562 -13.796875 7.28125 -13.796875 C 8.90625 -13.796875 10.109375 -13.4375 10.890625 -12.71875 C 11.671875 -12 12.0625 -10.847656 12.0625 -9.265625 L 12.0625 0 Z M 5.890625 -1.453125 C 7.171875 -1.453125 8.175781 -1.800781 8.90625 -2.5 C 9.632812 -3.207031 10 -4.191406 10 -5.453125 L 10 -6.671875 L 7.9375 -6.59375 C 6.300781 -6.53125 5.125 -6.273438 4.40625 -5.828125 C 3.6875 -5.378906 3.328125 -4.679688 3.328125 -3.734375 C 3.328125 -2.984375 3.550781 -2.414062 4 -2.03125 C 4.445312 -1.644531 5.078125 -1.453125 5.890625 -1.453125 Z M 5.890625 -1.453125 "/></g></g></g><g fill="#000000" fill-opacity="1"><g transform="translate(239.746301, 351.178029)"><g><path d="M 10.9375 -3.703125 C 10.9375 -2.441406 10.460938 -1.46875 9.515625 -0.78125 C 8.578125 -0.09375 7.257812 0.25 5.5625 0.25 C 3.757812 0.25 2.351562 -0.0351562 1.34375 -0.609375 L 1.34375 -2.515625 C 2 -2.179688 2.703125 -1.921875 3.453125 -1.734375 C 4.203125 -1.546875 4.921875 -1.453125 5.609375 -1.453125 C 6.679688 -1.453125 7.503906 -1.625 8.078125 -1.96875 C 8.660156 -2.3125 8.953125 -2.832031 8.953125 -3.53125 C 8.953125 -4.0625 8.722656 -4.515625 8.265625 -4.890625 C 7.804688 -5.265625 6.914062 -5.707031 5.59375 -6.21875 C 4.320312 -6.6875 3.421875 -7.097656 2.890625 -7.453125 C 2.359375 -7.804688 1.960938 -8.203125 1.703125 -8.640625 C 1.441406 -9.085938 1.3125 -9.625 1.3125 -10.25 C 1.3125 -11.351562 1.757812 -12.222656 2.65625 -12.859375 C 3.5625 -13.503906 4.800781 -13.828125 6.375 -13.828125 C 7.832031 -13.828125 9.257812 -13.53125 10.65625 -12.9375 L 9.921875 -11.265625 C 8.554688 -11.828125 7.320312 -12.109375 6.21875 -12.109375 C 5.25 -12.109375 4.515625 -11.953125 4.015625 -11.640625 C 3.515625 -11.335938 3.265625 -10.921875 3.265625 -10.390625 C 3.265625 -10.023438 3.359375 -9.710938 3.546875 -9.453125 C 3.734375 -9.191406 4.03125 -8.945312 4.4375 -8.71875 C 4.851562 -8.488281 5.648438 -8.15625 6.828125 -7.71875 C 8.441406 -7.132812 9.53125 -6.546875 10.09375 -5.953125 C 10.65625 -5.359375 10.9375 -4.609375 10.9375 -3.703125 Z M 10.9375 -3.703125 "/></g></g></g><g fill="#000000" fill-opacity="1"><g transform="translate(251.843702, 351.178029)"><g><path d="M 10.9375 -3.703125 C 10.9375 -2.441406 10.460938 -1.46875 9.515625 -0.78125 C 8.578125 -0.09375 7.257812 0.25 5.5625 0.25 C 3.757812 0.25 2.351562 -0.0351562 1.34375 -0.609375 L 1.34375 -2.515625 C 2 -2.179688 2.703125 -1.921875 3.453125 -1.734375 C 4.203125 -1.546875 4.921875 -1.453125 5.609375 -1.453125 C 6.679688 -1.453125 7.503906 -1.625 8.078125 -1.96875 C 8.660156 -2.3125 8.953125 -2.832031 8.953125 -3.53125 C 8.953125 -4.0625 8.722656 -4.515625 8.265625 -4.890625 C 7.804688 -5.265625 6.914062 -5.707031 5.59375 -6.21875 C 4.320312 -6.6875 3.421875 -7.097656 2.890625 -7.453125 C 2.359375 -7.804688 1.960938 -8.203125 1.703125 -8.640625 C 1.441406 -9.085938 1.3125 -9.625 1.3125 -10.25 C 1.3125 -11.351562 1.757812 -12.222656 2.65625 -12.859375 C 3.5625 -13.503906 4.800781 -13.828125 6.375 -13.828125 C 7.832031 -13.828125 9.257812 -13.53125 10.65625 -12.9375 L 9.921875 -11.265625 C 8.554688 -11.828125 7.320312 -12.109375 6.21875 -12.109375 C 5.25 -12.109375 4.515625 -11.953125 4.015625 -11.640625 C 3.515625 -11.335938 3.265625 -10.921875 3.265625 -10.390625 C 3.265625 -10.023438 3.359375 -9.710938 3.546875 -9.453125 C 3.734375 -9.191406 4.03125 -8.945312 4.4375 -8.71875 C 4.851562 -8.488281 5.648438 -8.15625 6.828125 -7.71875 C 8.441406 -7.132812 9.53125 -6.546875 10.09375 -5.953125 C 10.65625 -5.359375 10.9375 -4.609375 10.9375 -3.703125 Z M 10.9375 -3.703125 "/></g></g></g><g fill="#000000" fill-opacity="1"><g transform="translate(263.941103, 351.178029)"><g><path d="M 13.265625 0 L 10.78125 -7.96875 C 10.625 -8.457031 10.332031 -9.5625 9.90625 -11.28125 L 9.796875 -11.28125 C 9.472656 -9.84375 9.1875 -8.726562 8.9375 -7.9375 L 6.375 0 L 3.984375 0 L 0.28125 -13.578125 L 2.4375 -13.578125 C 3.3125 -10.171875 3.976562 -7.570312 4.4375 -5.78125 C 4.894531 -4 5.160156 -2.800781 5.234375 -2.1875 L 5.328125 -2.1875 C 5.421875 -2.65625 5.566406 -3.257812 5.765625 -4 C 5.972656 -4.75 6.148438 -5.34375 6.296875 -5.78125 L 8.78125 -13.578125 L 11.015625 -13.578125 L 13.4375 -5.78125 C 13.90625 -4.363281 14.222656 -3.171875 14.390625 -2.203125 L 14.484375 -2.203125 C 14.515625 -2.503906 14.601562 -2.960938 14.75 -3.578125 C 14.894531 -4.203125 15.753906 -7.535156 17.328125 -13.578125 L 19.46875 -13.578125 L 15.703125 0 Z M 13.265625 0 "/></g></g></g><g fill="#000000" fill-opacity="1"><g transform="translate(283.665931, 351.178029)"><g><path d="M 13.90625 -6.796875 C 13.90625 -4.585938 13.347656 -2.859375 12.234375 -1.609375 C 11.117188 -0.367188 9.578125 0.25 7.609375 0.25 C 6.390625 0.25 5.3125 -0.0351562 4.375 -0.609375 C 3.4375 -1.179688 2.707031 -2 2.1875 -3.0625 C 1.675781 -4.125 1.421875 -5.367188 1.421875 -6.796875 C 1.421875 -9.015625 1.972656 -10.738281 3.078125 -11.96875 C 4.191406 -13.207031 5.726562 -13.828125 7.6875 -13.828125 C 9.59375 -13.828125 11.101562 -13.191406 12.21875 -11.921875 C 13.34375 -10.660156 13.90625 -8.953125 13.90625 -6.796875 Z M 3.5625 -6.796875 C 3.5625 -5.066406 3.90625 -3.742188 4.59375 -2.828125 C 5.289062 -1.921875 6.3125 -1.46875 7.65625 -1.46875 C 9 -1.46875 10.019531 -1.921875 10.71875 -2.828125 C 11.414062 -3.734375 11.765625 -5.054688 11.765625 -6.796875 C 11.765625 -8.523438 11.414062 -9.835938 10.71875 -10.734375 C 10.019531 -11.628906 8.988281 -12.078125 7.625 -12.078125 C 6.28125 -12.078125 5.265625 -11.632812 4.578125 -10.75 C 3.898438 -9.863281 3.5625 -8.546875 3.5625 -6.796875 Z M 3.5625 -6.796875 "/></g></g></g><g fill="#000000" fill-opacity="1"><g transform="translate(298.9827, 351.178029)"><g><path d="M 8.375 -13.828125 C 8.976562 -13.828125 9.519531 -13.773438 10 -13.671875 L 9.71875 -11.765625 C 9.15625 -11.890625 8.660156 -11.953125 8.234375 -11.953125 C 7.128906 -11.953125 6.1875 -11.503906 5.40625 -10.609375 C 4.625 -9.722656 4.234375 -8.613281 4.234375 -7.28125 L 4.234375 0 L 2.1875 0 L 2.1875 -13.578125 L 3.875 -13.578125 L 4.109375 -11.0625 L 4.21875 -11.0625 C 4.71875 -11.945312 5.320312 -12.628906 6.03125 -13.109375 C 6.738281 -13.585938 7.519531 -13.828125 8.375 -13.828125 Z M 8.375 -13.828125 "/></g></g></g><g fill="#000000" fill-opacity="1"><g transform="translate(309.334208, 351.178029)"><g><path d="M 11.421875 -1.828125 L 11.3125 -1.828125 C 10.363281 -0.441406 8.941406 0.25 7.046875 0.25 C 5.273438 0.25 3.894531 -0.351562 2.90625 -1.5625 C 1.914062 -2.78125 1.421875 -4.507812 1.421875 -6.75 C 1.421875 -8.988281 1.914062 -10.726562 2.90625 -11.96875 C 3.90625 -13.207031 5.285156 -13.828125 7.046875 -13.828125 C 8.890625 -13.828125 10.300781 -13.15625 11.28125 -11.8125 L 11.453125 -11.8125 L 11.359375 -12.796875 L 11.3125 -13.75 L 11.3125 -19.28125 L 13.375 -19.28125 L 13.375 0 L 11.703125 0 Z M 7.3125 -1.46875 C 8.71875 -1.46875 9.734375 -1.847656 10.359375 -2.609375 C 10.992188 -3.378906 11.3125 -4.613281 11.3125 -6.3125 L 11.3125 -6.75 C 11.3125 -8.675781 10.988281 -10.050781 10.34375 -10.875 C 9.707031 -11.695312 8.6875 -12.109375 7.28125 -12.109375 C 6.070312 -12.109375 5.148438 -11.640625 4.515625 -10.703125 C 3.878906 -9.765625 3.5625 -8.441406 3.5625 -6.734375 C 3.5625 -4.992188 3.878906 -3.679688 4.515625 -2.796875 C 5.148438 -1.910156 6.082031 -1.46875 7.3125 -1.46875 Z M 7.3125 -1.46875 "/></g></g></g><g fill="#000000" fill-opacity="1"><g transform="translate(210.103336, 400.653881)"><g><path d="M 8.375 -13.828125 C 8.976562 -13.828125 9.519531 -13.773438 10 -13.671875 L 9.71875 -11.765625 C 9.15625 -11.890625 8.660156 -11.953125 8.234375 -11.953125 C 7.128906 -11.953125 6.1875 -11.503906 5.40625 -10.609375 C 4.625 -9.722656 4.234375 -8.613281 4.234375 -7.28125 L 4.234375 0 L 2.1875 0 L 2.1875 -13.578125 L 3.875 -13.578125 L 4.109375 -11.0625 L 4.21875 -11.0625 C 4.71875 -11.945312 5.320312 -12.628906 6.03125 -13.109375 C 6.738281 -13.585938 7.519531 -13.828125 8.375 -13.828125 Z M 8.375 -13.828125 "/></g></g></g><g fill="#000000" fill-opacity="1"><g transform="translate(220.454843, 400.653881)"><g><path d="M 13.90625 -6.796875 C 13.90625 -4.585938 13.347656 -2.859375 12.234375 -1.609375 C 11.117188 -0.367188 9.578125 0.25 7.609375 0.25 C 6.390625 0.25 5.3125 -0.0351562 4.375 -0.609375 C 3.4375 -1.179688 2.707031 -2 2.1875 -3.0625 C 1.675781 -4.125 1.421875 -5.367188 1.421875 -6.796875 C 1.421875 -9.015625 1.972656 -10.738281 3.078125 -11.96875 C 4.191406 -13.207031 5.726562 -13.828125 7.6875 -13.828125 C 9.59375 -13.828125 11.101562 -13.191406 12.21875 -11.921875 C 13.34375 -10.660156 13.90625 -8.953125 13.90625 -6.796875 Z M 3.5625 -6.796875 C 3.5625 -5.066406 3.90625 -3.742188 4.59375 -2.828125 C 5.289062 -1.921875 6.3125 -1.46875 7.65625 -1.46875 C 9 -1.46875 10.019531 -1.921875 10.71875 -2.828125 C 11.414062 -3.734375 11.765625 -5.054688 11.765625 -6.796875 C 11.765625 -8.523438 11.414062 -9.835938 10.71875 -10.734375 C 10.019531 -11.628906 8.988281 -12.078125 7.625 -12.078125 C 6.28125 -12.078125 5.265625 -11.632812 4.578125 -10.75 C 3.898438 -9.863281 3.5625 -8.546875 3.5625 -6.796875 Z M 3.5625 -6.796875 "/></g></g></g><g fill="#000000" fill-opacity="1"><g transform="translate(235.771612, 400.653881)"><g><path d="M 4.234375 0 L 2.1875 0 L 2.1875 -19.28125 L 4.234375 -19.28125 Z M 4.234375 0 "/></g></g></g><g fill="#000000" fill-opacity="1"><g transform="translate(242.185585, 400.653881)"><g><path d="M 7.921875 0.25 C 5.910156 0.25 4.320312 -0.359375 3.15625 -1.578125 C 2 -2.804688 1.421875 -4.503906 1.421875 -6.671875 C 1.421875 -8.867188 1.957031 -10.609375 3.03125 -11.890625 C 4.113281 -13.179688 5.566406 -13.828125 7.390625 -13.828125 C 9.085938 -13.828125 10.429688 -13.265625 11.421875 -12.140625 C 12.410156 -11.023438 12.90625 -9.550781 12.90625 -7.71875 L 12.90625 -6.421875 L 3.5625 -6.421875 C 3.601562 -4.828125 4.003906 -3.613281 4.765625 -2.78125 C 5.523438 -1.957031 6.597656 -1.546875 7.984375 -1.546875 C 9.453125 -1.546875 10.898438 -1.851562 12.328125 -2.46875 L 12.328125 -0.625 C 11.597656 -0.3125 10.910156 -0.0859375 10.265625 0.046875 C 9.617188 0.179688 8.835938 0.25 7.921875 0.25 Z M 7.359375 -12.109375 C 6.265625 -12.109375 5.394531 -11.75 4.75 -11.03125 C 4.101562 -10.320312 3.722656 -9.34375 3.609375 -8.09375 L 10.703125 -8.09375 C 10.703125 -9.382812 10.410156 -10.375 9.828125 -11.0625 C 9.253906 -11.757812 8.429688 -12.109375 7.359375 -12.109375 Z M 7.359375 -12.109375 "/></g></g></g><path fill="#000000" d="M 635.320312 253.726562 L 657.28125 253.726562 L 657.28125 255.972656 L 635.320312 255.972656 Z M 635.320312 253.726562 " fill-opacity="1" fill-rule="nonzero"/><g fill="#000000" fill-opacity="1"><g transform="translate(635.31947, 252.226326)"><g><path d="M 4.234375 0 L 2.1875 0 L 2.1875 -13.578125 L 4.234375 -13.578125 Z M 2 -17.265625 C 2 -17.734375 2.113281 -18.078125 2.34375 -18.296875 C 2.582031 -18.515625 2.875 -18.625 3.21875 -18.625 C 3.550781 -18.625 3.835938 -18.507812 4.078125 -18.28125 C 4.316406 -18.0625 4.4375 -17.722656 4.4375 -17.265625 C 4.4375 -16.796875 4.316406 -16.445312 4.078125 -16.21875 C 3.835938 -16 3.550781 -15.890625 3.21875 -15.890625 C 2.875 -15.890625 2.582031 -16 2.34375 -16.21875 C 2.113281 -16.445312 2 -16.796875 2 -17.265625 Z M 2 -17.265625 "/></g></g></g><g fill="#000000" fill-opacity="1"><g transform="translate(641.733443, 252.226326)"><g><path d="M 11.421875 -1.828125 L 11.3125 -1.828125 C 10.363281 -0.441406 8.941406 0.25 7.046875 0.25 C 5.273438 0.25 3.894531 -0.351562 2.90625 -1.5625 C 1.914062 -2.78125 1.421875 -4.507812 1.421875 -6.75 C 1.421875 -8.988281 1.914062 -10.726562 2.90625 -11.96875 C 3.90625 -13.207031 5.285156 -13.828125 7.046875 -13.828125 C 8.890625 -13.828125 10.300781 -13.15625 11.28125 -11.8125 L 11.453125 -11.8125 L 11.359375 -12.796875 L 11.3125 -13.75 L 11.3125 -19.28125 L 13.375 -19.28125 L 13.375 0 L 11.703125 0 Z M 7.3125 -1.46875 C 8.71875 -1.46875 9.734375 -1.847656 10.359375 -2.609375 C 10.992188 -3.378906 11.3125 -4.613281 11.3125 -6.3125 L 11.3125 -6.75 C 11.3125 -8.675781 10.988281 -10.050781 10.34375 -10.875 C 9.707031 -11.695312 8.6875 -12.109375 7.28125 -12.109375 C 6.070312 -12.109375 5.148438 -11.640625 4.515625 -10.703125 C 3.878906 -9.765625 3.5625 -8.441406 3.5625 -6.734375 C 3.5625 -4.992188 3.878906 -3.679688 4.515625 -2.796875 C 5.148438 -1.910156 6.082031 -1.46875 7.3125 -1.46875 Z M 7.3125 -1.46875 "/></g></g></g><g fill="#000000" fill-opacity="1"><g transform="translate(635.31947, 301.702178)"><g><path d="M 6.5625 -1.453125 C 6.925781 -1.453125 7.273438 -1.476562 7.609375 -1.53125 C 7.953125 -1.582031 8.222656 -1.640625 8.421875 -1.703125 L 8.421875 -0.125 C 8.203125 -0.0195312 7.875 0.0664062 7.4375 0.140625 C 7.007812 0.210938 6.617188 0.25 6.265625 0.25 C 3.640625 0.25 2.328125 -1.132812 2.328125 -3.90625 L 2.328125 -11.984375 L 0.390625 -11.984375 L 0.390625 -12.96875 L 2.328125 -13.828125 L 3.203125 -16.734375 L 4.390625 -16.734375 L 4.390625 -13.578125 L 8.328125 -13.578125 L 8.328125 -11.984375 L 4.390625 -11.984375 L 4.390625 -3.984375 C 4.390625 -3.171875 4.582031 -2.546875 4.96875 -2.109375 C 5.351562 -1.671875 5.882812 -1.453125 6.5625 -1.453125 Z M 6.5625 -1.453125 "/></g></g></g><g fill="#000000" fill-opacity="1"><g transform="translate(644.271796, 301.702178)"><g><path d="M 4.234375 0 L 2.1875 0 L 2.1875 -13.578125 L 4.234375 -13.578125 Z M 2 -17.265625 C 2 -17.734375 2.113281 -18.078125 2.34375 -18.296875 C 2.582031 -18.515625 2.875 -18.625 3.21875 -18.625 C 3.550781 -18.625 3.835938 -18.507812 4.078125 -18.28125 C 4.316406 -18.0625 4.4375 -17.722656 4.4375 -17.265625 C 4.4375 -16.796875 4.316406 -16.445312 4.078125 -16.21875 C 3.835938 -16 3.550781 -15.890625 3.21875 -15.890625 C 2.875 -15.890625 2.582031 -16 2.34375 -16.21875 C 2.113281 -16.445312 2 -16.796875 2 -17.265625 Z M 2 -17.265625 "/></g></g></g><g fill="#000000" fill-opacity="1"><g transform="translate(650.685769, 301.702178)"><g><path d="M 6.5625 -1.453125 C 6.925781 -1.453125 7.273438 -1.476562 7.609375 -1.53125 C 7.953125 -1.582031 8.222656 -1.640625 8.421875 -1.703125 L 8.421875 -0.125 C 8.203125 -0.0195312 7.875 0.0664062 7.4375 0.140625 C 7.007812 0.210938 6.617188 0.25 6.265625 0.25 C 3.640625 0.25 2.328125 -1.132812 2.328125 -3.90625 L 2.328125 -11.984375 L 0.390625 -11.984375 L 0.390625 -12.96875 L 2.328125 -13.828125 L 3.203125 -16.734375 L 4.390625 -16.734375 L 4.390625 -13.578125 L 8.328125 -13.578125 L 8.328125 -11.984375 L 4.390625 -11.984375 L 4.390625 -3.984375 C 4.390625 -3.171875 4.582031 -2.546875 4.96875 -2.109375 C 5.351562 -1.671875 5.882812 -1.453125 6.5625 -1.453125 Z M 6.5625 -1.453125 "/></g></g></g><g fill="#000000" fill-opacity="1"><g transform="translate(659.638095, 301.702178)"><g><path d="M 4.234375 0 L 2.1875 0 L 2.1875 -19.28125 L 4.234375 -19.28125 Z M 4.234375 0 "/></g></g></g><g fill="#000000" fill-opacity="1"><g transform="translate(666.052067, 301.702178)"><g><path d="M 7.921875 0.25 C 5.910156 0.25 4.320312 -0.359375 3.15625 -1.578125 C 2 -2.804688 1.421875 -4.503906 1.421875 -6.671875 C 1.421875 -8.867188 1.957031 -10.609375 3.03125 -11.890625 C 4.113281 -13.179688 5.566406 -13.828125 7.390625 -13.828125 C 9.085938 -13.828125 10.429688 -13.265625 11.421875 -12.140625 C 12.410156 -11.023438 12.90625 -9.550781 12.90625 -7.71875 L 12.90625 -6.421875 L 3.5625 -6.421875 C 3.601562 -4.828125 4.003906 -3.613281 4.765625 -2.78125 C 5.523438 -1.957031 6.597656 -1.546875 7.984375 -1.546875 C 9.453125 -1.546875 10.898438 -1.851562 12.328125 -2.46875 L 12.328125 -0.625 C 11.597656 -0.3125 10.910156 -0.0859375 10.265625 0.046875 C 9.617188 0.179688 8.835938 0.25 7.921875 0.25 Z M 7.359375 -12.109375 C 6.265625 -12.109375 5.394531 -11.75 4.75 -11.03125 C 4.101562 -10.320312 3.722656 -9.34375 3.609375 -8.09375 L 10.703125 -8.09375 C 10.703125 -9.382812 10.410156 -10.375 9.828125 -11.0625 C 9.253906 -11.757812 8.429688 -12.109375 7.359375 -12.109375 Z M 7.359375 -12.109375 "/></g></g></g><g fill="#000000" fill-opacity="1"><g transform="translate(635.31947, 351.178029)"><g><path d="M 7.609375 0.25 C 5.640625 0.25 4.113281 -0.351562 3.03125 -1.5625 C 1.957031 -2.769531 1.421875 -4.484375 1.421875 -6.703125 C 1.421875 -8.972656 1.96875 -10.726562 3.0625 -11.96875 C 4.15625 -13.207031 5.71875 -13.828125 7.75 -13.828125 C 8.394531 -13.828125 9.046875 -13.753906 9.703125 -13.609375 C 10.359375 -13.472656 10.867188 -13.3125 11.234375 -13.125 L 10.609375 -11.375 C 10.148438 -11.550781 9.648438 -11.695312 9.109375 -11.8125 C 8.578125 -11.9375 8.101562 -12 7.6875 -12 C 4.9375 -12 3.5625 -10.242188 3.5625 -6.734375 C 3.5625 -5.054688 3.894531 -3.769531 4.5625 -2.875 C 5.238281 -1.988281 6.238281 -1.546875 7.5625 -1.546875 C 8.6875 -1.546875 9.847656 -1.789062 11.046875 -2.28125 L 11.046875 -0.453125 C 10.128906 0.015625 8.984375 0.25 7.609375 0.25 Z M 7.609375 0.25 "/></g></g></g><g fill="#000000" fill-opacity="1"><g transform="translate(647.392107, 351.178029)"><g><path d="M 13.90625 -6.796875 C 13.90625 -4.585938 13.347656 -2.859375 12.234375 -1.609375 C 11.117188 -0.367188 9.578125 0.25 7.609375 0.25 C 6.390625 0.25 5.3125 -0.0351562 4.375 -0.609375 C 3.4375 -1.179688 2.707031 -2 2.1875 -3.0625 C 1.675781 -4.125 1.421875 -5.367188 1.421875 -6.796875 C 1.421875 -9.015625 1.972656 -10.738281 3.078125 -11.96875 C 4.191406 -13.207031 5.726562 -13.828125 7.6875 -13.828125 C 9.59375 -13.828125 11.101562 -13.191406 12.21875 -11.921875 C 13.34375 -10.660156 13.90625 -8.953125 13.90625 -6.796875 Z M 3.5625 -6.796875 C 3.5625 -5.066406 3.90625 -3.742188 4.59375 -2.828125 C 5.289062 -1.921875 6.3125 -1.46875 7.65625 -1.46875 C 9 -1.46875 10.019531 -1.921875 10.71875 -2.828125 C 11.414062 -3.734375 11.765625 -5.054688 11.765625 -6.796875 C 11.765625 -8.523438 11.414062 -9.835938 10.71875 -10.734375 C 10.019531 -11.628906 8.988281 -12.078125 7.625 -12.078125 C 6.28125 -12.078125 5.265625 -11.632812 4.578125 -10.75 C 3.898438 -9.863281 3.5625 -8.546875 3.5625 -6.796875 Z M 3.5625 -6.796875 "/></g></g></g><g fill="#000000" fill-opacity="1"><g transform="translate(662.708877, 351.178029)"><g><path d="M 11.46875 0 L 11.46875 -8.78125 C 11.46875 -9.882812 11.21875 -10.707031 10.71875 -11.25 C 10.21875 -11.800781 9.425781 -12.078125 8.34375 -12.078125 C 6.925781 -12.078125 5.882812 -11.691406 5.21875 -10.921875 C 4.5625 -10.160156 4.234375 -8.894531 4.234375 -7.125 L 4.234375 0 L 2.1875 0 L 2.1875 -13.578125 L 3.859375 -13.578125 L 4.1875 -11.71875 L 4.28125 -11.71875 C 4.707031 -12.382812 5.300781 -12.898438 6.0625 -13.265625 C 6.820312 -13.640625 7.664062 -13.828125 8.59375 -13.828125 C 10.226562 -13.828125 11.457031 -13.429688 12.28125 -12.640625 C 13.113281 -11.847656 13.53125 -10.585938 13.53125 -8.859375 L 13.53125 0 Z M 11.46875 0 "/></g></g></g><g fill="#000000" fill-opacity="1"><g transform="translate(678.27329, 351.178029)"><g><path d="M 6.5625 -1.453125 C 6.925781 -1.453125 7.273438 -1.476562 7.609375 -1.53125 C 7.953125 -1.582031 8.222656 -1.640625 8.421875 -1.703125 L 8.421875 -0.125 C 8.203125 -0.0195312 7.875 0.0664062 7.4375 0.140625 C 7.007812 0.210938 6.617188 0.25 6.265625 0.25 C 3.640625 0.25 2.328125 -1.132812 2.328125 -3.90625 L 2.328125 -11.984375 L 0.390625 -11.984375 L 0.390625 -12.96875 L 2.328125 -13.828125 L 3.203125 -16.734375 L 4.390625 -16.734375 L 4.390625 -13.578125 L 8.328125 -13.578125 L 8.328125 -11.984375 L 4.390625 -11.984375 L 4.390625 -3.984375 C 4.390625 -3.171875 4.582031 -2.546875 4.96875 -2.109375 C 5.351562 -1.671875 5.882812 -1.453125 6.5625 -1.453125 Z M 6.5625 -1.453125 "/></g></g></g><g fill="#000000" fill-opacity="1"><g transform="translate(687.225616, 351.178029)"><g><path d="M 7.921875 0.25 C 5.910156 0.25 4.320312 -0.359375 3.15625 -1.578125 C 2 -2.804688 1.421875 -4.503906 1.421875 -6.671875 C 1.421875 -8.867188 1.957031 -10.609375 3.03125 -11.890625 C 4.113281 -13.179688 5.566406 -13.828125 7.390625 -13.828125 C 9.085938 -13.828125 10.429688 -13.265625 11.421875 -12.140625 C 12.410156 -11.023438 12.90625 -9.550781 12.90625 -7.71875 L 12.90625 -6.421875 L 3.5625 -6.421875 C 3.601562 -4.828125 4.003906 -3.613281 4.765625 -2.78125 C 5.523438 -1.957031 6.597656 -1.546875 7.984375 -1.546875 C 9.453125 -1.546875 10.898438 -1.851562 12.328125 -2.46875 L 12.328125 -0.625 C 11.597656 -0.3125 10.910156 -0.0859375 10.265625 0.046875 C 9.617188 0.179688 8.835938 0.25 7.921875 0.25 Z M 7.359375 -12.109375 C 6.265625 -12.109375 5.394531 -11.75 4.75 -11.03125 C 4.101562 -10.320312 3.722656 -9.34375 3.609375 -8.09375 L 10.703125 -8.09375 C 10.703125 -9.382812 10.410156 -10.375 9.828125 -11.0625 C 9.253906 -11.757812 8.429688 -12.109375 7.359375 -12.109375 Z M 7.359375 -12.109375 "/></g></g></g><g fill="#000000" fill-opacity="1"><g transform="translate(701.452753, 351.178029)"><g><path d="M 11.46875 0 L 11.46875 -8.78125 C 11.46875 -9.882812 11.21875 -10.707031 10.71875 -11.25 C 10.21875 -11.800781 9.425781 -12.078125 8.34375 -12.078125 C 6.925781 -12.078125 5.882812 -11.691406 5.21875 -10.921875 C 4.5625 -10.160156 4.234375 -8.894531 4.234375 -7.125 L 4.234375 0 L 2.1875 0 L 2.1875 -13.578125 L 3.859375 -13.578125 L 4.1875 -11.71875 L 4.28125 -11.71875 C 4.707031 -12.382812 5.300781 -12.898438 6.0625 -13.265625 C 6.820312 -13.640625 7.664062 -13.828125 8.59375 -13.828125 C 10.226562 -13.828125 11.457031 -13.429688 12.28125 -12.640625 C 13.113281 -11.847656 13.53125 -10.585938 13.53125 -8.859375 L 13.53125 0 Z M 11.46875 0 "/></g></g></g><g fill="#000000" fill-opacity="1"><g transform="translate(717.017166, 351.178029)"><g><path d="M 6.5625 -1.453125 C 6.925781 -1.453125 7.273438 -1.476562 7.609375 -1.53125 C 7.953125 -1.582031 8.222656 -1.640625 8.421875 -1.703125 L 8.421875 -0.125 C 8.203125 -0.0195312 7.875 0.0664062 7.4375 0.140625 C 7.007812 0.210938 6.617188 0.25 6.265625 0.25 C 3.640625 0.25 2.328125 -1.132812 2.328125 -3.90625 L 2.328125 -11.984375 L 0.390625 -11.984375 L 0.390625 -12.96875 L 2.328125 -13.828125 L 3.203125 -16.734375 L 4.390625 -16.734375 L 4.390625 -13.578125 L 8.328125 -13.578125 L 8.328125 -11.984375 L 4.390625 -11.984375 L 4.390625 -3.984375 C 4.390625 -3.171875 4.582031 -2.546875 4.96875 -2.109375 C 5.351562 -1.671875 5.882812 -1.453125 6.5625 -1.453125 Z M 6.5625 -1.453125 "/></g></g></g><g fill="#000000" fill-opacity="1"><g transform="translate(635.31947, 400.653881)"><g><path d="M 12.15625 -11.140625 L 11.34375 -6.921875 L 14.84375 -6.921875 L 14.84375 -5.328125 L 11.046875 -5.328125 L 10 0 L 8.296875 0 L 9.34375 -5.328125 L 5.59375 -5.328125 L 4.578125 0 L 2.890625 0 L 3.875 -5.328125 L 0.625 -5.328125 L 0.625 -6.921875 L 4.1875 -6.921875 L 5.03125 -11.140625 L 1.59375 -11.140625 L 1.59375 -12.71875 L 5.296875 -12.71875 L 6.3125 -18.109375 L 8.046875 -18.109375 L 7.03125 -12.71875 L 10.796875 -12.71875 L 11.84375 -18.109375 L 13.5 -18.109375 L 12.46875 -12.71875 L 15.734375 -12.71875 L 15.734375 -11.140625 Z M 5.890625 -6.921875 L 9.640625 -6.921875 L 10.453125 -11.140625 L 6.703125 -11.140625 Z M 5.890625 -6.921875 "/></g></g></g><g fill="#000000" fill-opacity="1"><g transform="translate(651.701108, 400.653881)"><g><path d="M 4.109375 -13.578125 L 4.109375 -4.765625 C 4.109375 -3.660156 4.359375 -2.832031 4.859375 -2.28125 C 5.367188 -1.738281 6.160156 -1.46875 7.234375 -1.46875 C 8.648438 -1.46875 9.6875 -1.851562 10.34375 -2.625 C 11.007812 -3.40625 11.34375 -4.675781 11.34375 -6.4375 L 11.34375 -13.578125 L 13.390625 -13.578125 L 13.390625 0 L 11.703125 0 L 11.40625 -1.828125 L 11.28125 -1.828125 C 10.863281 -1.148438 10.28125 -0.632812 9.53125 -0.28125 C 8.78125 0.0703125 7.925781 0.25 6.96875 0.25 C 5.320312 0.25 4.085938 -0.140625 3.265625 -0.921875 C 2.441406 -1.710938 2.03125 -2.972656 2.03125 -4.703125 L 2.03125 -13.578125 Z M 4.109375 -13.578125 "/></g></g></g><g fill="#000000" fill-opacity="1"><g transform="translate(667.265521, 400.653881)"><g><path d="M 10.9375 -3.703125 C 10.9375 -2.441406 10.460938 -1.46875 9.515625 -0.78125 C 8.578125 -0.09375 7.257812 0.25 5.5625 0.25 C 3.757812 0.25 2.351562 -0.0351562 1.34375 -0.609375 L 1.34375 -2.515625 C 2 -2.179688 2.703125 -1.921875 3.453125 -1.734375 C 4.203125 -1.546875 4.921875 -1.453125 5.609375 -1.453125 C 6.679688 -1.453125 7.503906 -1.625 8.078125 -1.96875 C 8.660156 -2.3125 8.953125 -2.832031 8.953125 -3.53125 C 8.953125 -4.0625 8.722656 -4.515625 8.265625 -4.890625 C 7.804688 -5.265625 6.914062 -5.707031 5.59375 -6.21875 C 4.320312 -6.6875 3.421875 -7.097656 2.890625 -7.453125 C 2.359375 -7.804688 1.960938 -8.203125 1.703125 -8.640625 C 1.441406 -9.085938 1.3125 -9.625 1.3125 -10.25 C 1.3125 -11.351562 1.757812 -12.222656 2.65625 -12.859375 C 3.5625 -13.503906 4.800781 -13.828125 6.375 -13.828125 C 7.832031 -13.828125 9.257812 -13.53125 10.65625 -12.9375 L 9.921875 -11.265625 C 8.554688 -11.828125 7.320312 -12.109375 6.21875 -12.109375 C 5.25 -12.109375 4.515625 -11.953125 4.015625 -11.640625 C 3.515625 -11.335938 3.265625 -10.921875 3.265625 -10.390625 C 3.265625 -10.023438 3.359375 -9.710938 3.546875 -9.453125 C 3.734375 -9.191406 4.03125 -8.945312 4.4375 -8.71875 C 4.851562 -8.488281 5.648438 -8.15625 6.828125 -7.71875 C 8.441406 -7.132812 9.53125 -6.546875 10.09375 -5.953125 C 10.65625 -5.359375 10.9375 -4.609375 10.9375 -3.703125 Z M 10.9375 -3.703125 "/></g></g></g><g fill="#000000" fill-opacity="1"><g transform="translate(679.362922, 400.653881)"><g><path d="M 7.921875 0.25 C 5.910156 0.25 4.320312 -0.359375 3.15625 -1.578125 C 2 -2.804688 1.421875 -4.503906 1.421875 -6.671875 C 1.421875 -8.867188 1.957031 -10.609375 3.03125 -11.890625 C 4.113281 -13.179688 5.566406 -13.828125 7.390625 -13.828125 C 9.085938 -13.828125 10.429688 -13.265625 11.421875 -12.140625 C 12.410156 -11.023438 12.90625 -9.550781 12.90625 -7.71875 L 12.90625 -6.421875 L 3.5625 -6.421875 C 3.601562 -4.828125 4.003906 -3.613281 4.765625 -2.78125 C 5.523438 -1.957031 6.597656 -1.546875 7.984375 -1.546875 C 9.453125 -1.546875 10.898438 -1.851562 12.328125 -2.46875 L 12.328125 -0.625 C 11.597656 -0.3125 10.910156 -0.0859375 10.265625 0.046875 C 9.617188 0.179688 8.835938 0.25 7.921875 0.25 Z M 7.359375 -12.109375 C 6.265625 -12.109375 5.394531 -11.75 4.75 -11.03125 C 4.101562 -10.320312 3.722656 -9.34375 3.609375 -8.09375 L 10.703125 -8.09375 C 10.703125 -9.382812 10.410156 -10.375 9.828125 -11.0625 C 9.253906 -11.757812 8.429688 -12.109375 7.359375 -12.109375 Z M 7.359375 -12.109375 "/></g></g></g><g fill="#000000" fill-opacity="1"><g transform="translate(693.590059, 400.653881)"><g><path d="M 8.375 -13.828125 C 8.976562 -13.828125 9.519531 -13.773438 10 -13.671875 L 9.71875 -11.765625 C 9.15625 -11.890625 8.660156 -11.953125 8.234375 -11.953125 C 7.128906 -11.953125 6.1875 -11.503906 5.40625 -10.609375 C 4.625 -9.722656 4.234375 -8.613281 4.234375 -7.28125 L 4.234375 0 L 2.1875 0 L 2.1875 -13.578125 L 3.875 -13.578125 L 4.109375 -11.0625 L 4.21875 -11.0625 C 4.71875 -11.945312 5.320312 -12.628906 6.03125 -13.109375 C 6.738281 -13.585938 7.519531 -13.828125 8.375 -13.828125 Z M 8.375 -13.828125 "/></g></g></g><g fill="#000000" fill-opacity="1"><g transform="translate(703.941567, 400.653881)"><g><path d="M 11.421875 3.90625 L -0.046875 3.90625 L -0.046875 2.28125 L 11.421875 2.28125 Z M 11.421875 3.90625 "/></g></g></g><g fill="#000000" fill-opacity="1"><g transform="translate(715.308413, 400.653881)"><g><path d="M 4.234375 0 L 2.1875 0 L 2.1875 -13.578125 L 4.234375 -13.578125 Z M 2 -17.265625 C 2 -17.734375 2.113281 -18.078125 2.34375 -18.296875 C 2.582031 -18.515625 2.875 -18.625 3.21875 -18.625 C 3.550781 -18.625 3.835938 -18.507812 4.078125 -18.28125 C 4.316406 -18.0625 4.4375 -17.722656 4.4375 -17.265625 C 4.4375 -16.796875 4.316406 -16.445312 4.078125 -16.21875 C 3.835938 -16 3.550781 -15.890625 3.21875 -15.890625 C 2.875 -15.890625 2.582031 -16 2.34375 -16.21875 C 2.113281 -16.445312 2 -16.796875 2 -17.265625 Z M 2 -17.265625 "/></g></g></g><g fill="#000000" fill-opacity="1"><g transform="translate(721.722386, 400.653881)"><g><path d="M 11.421875 -1.828125 L 11.3125 -1.828125 C 10.363281 -0.441406 8.941406 0.25 7.046875 0.25 C 5.273438 0.25 3.894531 -0.351562 2.90625 -1.5625 C 1.914062 -2.78125 1.421875 -4.507812 1.421875 -6.75 C 1.421875 -8.988281 1.914062 -10.726562 2.90625 -11.96875 C 3.90625 -13.207031 5.285156 -13.828125 7.046875 -13.828125 C 8.890625 -13.828125 10.300781 -13.15625 11.28125 -11.8125 L 11.453125 -11.8125 L 11.359375 -12.796875 L 11.3125 -13.75 L 11.3125 -19.28125 L 13.375 -19.28125 L 13.375 0 L 11.703125 0 Z M 7.3125 -1.46875 C 8.71875 -1.46875 9.734375 -1.847656 10.359375 -2.609375 C 10.992188 -3.378906 11.3125 -4.613281 11.3125 -6.3125 L 11.3125 -6.75 C 11.3125 -8.675781 10.988281 -10.050781 10.34375 -10.875 C 9.707031 -11.695312 8.6875 -12.109375 7.28125 -12.109375 C 6.070312 -12.109375 5.148438 -11.640625 4.515625 -10.703125 C 3.878906 -9.765625 3.5625 -8.441406 3.5625 -6.734375 C 3.5625 -4.992188 3.878906 -3.679688 4.515625 -2.796875 C 5.148438 -1.910156 6.082031 -1.46875 7.3125 -1.46875 Z M 7.3125 -1.46875 "/></g></g></g><g fill="#000000" fill-opacity="1"><g transform="translate(635.31947, 450.129733)"><g><path d="M 11.421875 -1.828125 L 11.3125 -1.828125 C 10.363281 -0.441406 8.941406 0.25 7.046875 0.25 C 5.273438 0.25 3.894531 -0.351562 2.90625 -1.5625 C 1.914062 -2.78125 1.421875 -4.507812 1.421875 -6.75 C 1.421875 -8.988281 1.914062 -10.726562 2.90625 -11.96875 C 3.90625 -13.207031 5.285156 -13.828125 7.046875 -13.828125 C 8.890625 -13.828125 10.300781 -13.15625 11.28125 -11.8125 L 11.453125 -11.8125 L 11.359375 -12.796875 L 11.3125 -13.75 L 11.3125 -19.28125 L 13.375 -19.28125 L 13.375 0 L 11.703125 0 Z M 7.3125 -1.46875 C 8.71875 -1.46875 9.734375 -1.847656 10.359375 -2.609375 C 10.992188 -3.378906 11.3125 -4.613281 11.3125 -6.3125 L 11.3125 -6.75 C 11.3125 -8.675781 10.988281 -10.050781 10.34375 -10.875 C 9.707031 -11.695312 8.6875 -12.109375 7.28125 -12.109375 C 6.070312 -12.109375 5.148438 -11.640625 4.515625 -10.703125 C 3.878906 -9.765625 3.5625 -8.441406 3.5625 -6.734375 C 3.5625 -4.992188 3.878906 -3.679688 4.515625 -2.796875 C 5.148438 -1.910156 6.082031 -1.46875 7.3125 -1.46875 Z M 7.3125 -1.46875 "/></g></g></g><g fill="#000000" fill-opacity="1"><g transform="translate(650.859119, 450.129733)"><g><path d="M 10.53125 0 L 10.125 -1.9375 L 10.03125 -1.9375 C 9.34375 -1.082031 8.660156 -0.503906 7.984375 -0.203125 C 7.316406 0.0976562 6.476562 0.25 5.46875 0.25 C 4.125 0.25 3.070312 -0.09375 2.3125 -0.78125 C 1.550781 -1.476562 1.171875 -2.46875 1.171875 -3.75 C 1.171875 -6.5 3.363281 -7.9375 7.75 -8.0625 L 10.046875 -8.140625 L 10.046875 -8.984375 C 10.046875 -10.046875 9.816406 -10.832031 9.359375 -11.34375 C 8.898438 -11.851562 8.164062 -12.109375 7.15625 -12.109375 C 6.03125 -12.109375 4.753906 -11.757812 3.328125 -11.0625 L 2.6875 -12.640625 C 3.351562 -13.003906 4.082031 -13.285156 4.875 -13.484375 C 5.675781 -13.691406 6.476562 -13.796875 7.28125 -13.796875 C 8.90625 -13.796875 10.109375 -13.4375 10.890625 -12.71875 C 11.671875 -12 12.0625 -10.847656 12.0625 -9.265625 L 12.0625 0 Z M 5.890625 -1.453125 C 7.171875 -1.453125 8.175781 -1.800781 8.90625 -2.5 C 9.632812 -3.207031 10 -4.191406 10 -5.453125 L 10 -6.671875 L 7.9375 -6.59375 C 6.300781 -6.53125 5.125 -6.273438 4.40625 -5.828125 C 3.6875 -5.378906 3.328125 -4.679688 3.328125 -3.734375 C 3.328125 -2.984375 3.550781 -2.414062 4 -2.03125 C 4.445312 -1.644531 5.078125 -1.453125 5.890625 -1.453125 Z M 5.890625 -1.453125 "/></g></g></g><g fill="#000000" fill-opacity="1"><g transform="translate(664.962435, 450.129733)"><g><path d="M 6.5625 -1.453125 C 6.925781 -1.453125 7.273438 -1.476562 7.609375 -1.53125 C 7.953125 -1.582031 8.222656 -1.640625 8.421875 -1.703125 L 8.421875 -0.125 C 8.203125 -0.0195312 7.875 0.0664062 7.4375 0.140625 C 7.007812 0.210938 6.617188 0.25 6.265625 0.25 C 3.640625 0.25 2.328125 -1.132812 2.328125 -3.90625 L 2.328125 -11.984375 L 0.390625 -11.984375 L 0.390625 -12.96875 L 2.328125 -13.828125 L 3.203125 -16.734375 L 4.390625 -16.734375 L 4.390625 -13.578125 L 8.328125 -13.578125 L 8.328125 -11.984375 L 4.390625 -11.984375 L 4.390625 -3.984375 C 4.390625 -3.171875 4.582031 -2.546875 4.96875 -2.109375 C 5.351562 -1.671875 5.882812 -1.453125 6.5625 -1.453125 Z M 6.5625 -1.453125 "/></g></g></g><g fill="#000000" fill-opacity="1"><g transform="translate(673.914761, 450.129733)"><g><path d="M 7.921875 0.25 C 5.910156 0.25 4.320312 -0.359375 3.15625 -1.578125 C 2 -2.804688 1.421875 -4.503906 1.421875 -6.671875 C 1.421875 -8.867188 1.957031 -10.609375 3.03125 -11.890625 C 4.113281 -13.179688 5.566406 -13.828125 7.390625 -13.828125 C 9.085938 -13.828125 10.429688 -13.265625 11.421875 -12.140625 C 12.410156 -11.023438 12.90625 -9.550781 12.90625 -7.71875 L 12.90625 -6.421875 L 3.5625 -6.421875 C 3.601562 -4.828125 4.003906 -3.613281 4.765625 -2.78125 C 5.523438 -1.957031 6.597656 -1.546875 7.984375 -1.546875 C 9.453125 -1.546875 10.898438 -1.851562 12.328125 -2.46875 L 12.328125 -0.625 C 11.597656 -0.3125 10.910156 -0.0859375 10.265625 0.046875 C 9.617188 0.179688 8.835938 0.25 7.921875 0.25 Z M 7.359375 -12.109375 C 6.265625 -12.109375 5.394531 -11.75 4.75 -11.03125 C 4.101562 -10.320312 3.722656 -9.34375 3.609375 -8.09375 L 10.703125 -8.09375 C 10.703125 -9.382812 10.410156 -10.375 9.828125 -11.0625 C 9.253906 -11.757812 8.429688 -12.109375 7.359375 -12.109375 Z M 7.359375 -12.109375 "/></g></g></g><path stroke-linecap="butt" transform="matrix(-0.749634, 0, 0, -0.749634, 604.492884, 290.998544)" fill="none" stroke-linejoin="miter" d="M 0.000929535 1.999034 L 263.160561 1.999034 " stroke="#000000" stroke-width="4" stroke-opacity="1" stroke-miterlimit="4"/><path stroke-linecap="round" transform="matrix(-0.749634, 0, 0, -0.749634, 604.492884, 290.998544)" fill="none" stroke-linejoin="round" d="M 255.156656 -3.998683 L 263.160561 1.999034 L 255.156656 8.001963 " stroke="#000000" stroke-width="4" stroke-opacity="1" stroke-miterlimit="4"/></svg>